<?xml version="1.0" standalone="no"?><!DOCTYPE svg PUBLIC "-//W3C//DTD SVG 1.1//EN" "http://www.w3.org/Graphics/SVG/1.1/DTD/svg11.dtd"><svg t="1568606152463" class="icon" viewBox="0 0 1024 1024" version="1.1" xmlns="http://www.w3.org/2000/svg" p-id="8449" xmlns:xlink="http://www.w3.org/1999/xlink" width="200" height="200"><defs><style type="text/css"></style></defs><path d="M685.3 599.8c-20.8 0-35.9-13.9-35.9-35.9s13.9-35.9 35.9-35.9c20.8 0 35.9 13.9 35.9 35.9s-15 35.9-35.9 35.9z m0 0" fill="#fe0000" p-id="8450"></path><path d="M766.3 112.8h-509c-19.7 0-34.7 15-34.7 34.7v728.8c0 19.7 15 34.7 34.7 34.7h509c19.7 0 34.7-15 34.7-34.7V147.5c0-19.7-15-34.7-34.7-34.7zM540.7 587.1c-16.2 0-28.9-12.7-28.9-28.9s12.7-28.9 28.9-28.9 28.9 12.7 28.9 28.9c0.1 16.2-12.7 28.9-28.9 28.9z m144.6 34.7c-31.2 0-57.8-25.4-57.8-57.8s25.5-57.8 57.8-57.8c31.2 0 57.8 25.4 57.8 57.8 0.1 32.4-26.5 57.8-57.8 57.8z m57.9-162H280.4V344.2h462.8v115.6z m0-173.5H280.4V170.6h462.8v115.7z m0 0" fill="#fe0000" p-id="8451"></path></svg>