<?xml version="1.0" standalone="no"?><!DOCTYPE svg PUBLIC "-//W3C//DTD SVG 1.1//EN" "http://www.w3.org/Graphics/SVG/1.1/DTD/svg11.dtd"><svg t="1568605836523" class="icon" viewBox="0 0 1109 1024" version="1.1" xmlns="http://www.w3.org/2000/svg" p-id="6118" xmlns:xlink="http://www.w3.org/1999/xlink" width="216.6015625" height="200"><defs><style type="text/css"></style></defs><path d="M625.066667 413.866667l-53.333334-4.266667c-4.266667-12.8-8.533333-21.333333-12.8-32l34.133334-44.8c17.066667-17.066667 12.8-49.066667-4.266667-68.266667L558.933333 234.666667c-17.066667-17.066667-49.066667-17.066667-66.133333-4.266667L448 266.666667c-8.533333-4.266667-17.066667-8.533333-29.866667-12.8l-4.266666-53.333334c-4.266667-27.733333-21.333333-44.8-49.066667-44.8H320c-25.6 0-49.066667 17.066667-49.066667 44.8l-4.266666 53.333334c-12.8 4.266667-21.333333 8.533333-34.133334 12.8l-44.8-36.266667c-19.2-14.933333-44.8-12.8-61.866666 4.266667l-29.866667 32c-17.066667 17.066667-17.066667 49.066667-4.266667 68.266666l34.133334 44.8c-4.266667 8.533333-8.533333 21.333333-12.8 32l-49.066667 2.133334c-25.6 4.266667-44.8 23.466667-44.8 49.066666v40.533334c0 27.733333 17.066667 49.066667 44.8 49.066666l53.333333 4.266667c4.266667 12.8 8.533333 23.466667 12.8 32l-34.133333 44.8c-17.066667 17.066667-12.8 49.066667 4.266667 68.266667l29.866666 32c17.066667 17.066667 49.066667 17.066667 66.133334 4.266666l44.8-36.266666c8.533333 4.266667 21.333333 8.533333 29.866666 12.8l4.266667 53.333333c4.266667 27.733333 21.333333 44.8 49.066667 44.8H362.666667c25.6 0 49.066667-17.066667 49.066666-44.8l4.266667-53.333333c12.8-4.266667 21.333333-8.533333 29.866667-12.8l44.8 36.266666c17.066667 17.066667 49.066667 12.8 66.133333-4.266666l29.866667-32c17.066667-17.066667 17.066667-49.066667 4.266666-68.266667L554.666667 588.8c4.266667-8.533333 8.533333-21.333333 12.8-32l53.333333-4.266667c25.6-4.266667 44.8-23.466667 44.8-49.066666v-40.533334c2.133333-23.466667-14.933333-44.8-40.533333-49.066666z m-290.133334 187.733333c-61.866667 0-108.8-49.066667-108.8-113.066667s49.066667-113.066667 108.8-113.066666 108.8 49.066667 108.8 113.066666c2.133333 64-46.933333 113.066667-108.8 113.066667zM1011.2 170.666667L981.333333 166.4c-2.133333-6.4-4.266667-12.8-8.533333-17.066667l17.066667-27.733333c8.533333-12.8 8.533333-27.733333 0-40.533333l-19.2-17.066667c-10.666667-10.666667-27.733333-10.666667-38.4 0l-27.733334 21.333333c-4.266667-4.266667-8.533333-8.533333-17.066666-8.533333l-4.266667-32c0-12.8-12.8-27.733333-29.866667-27.733333h-25.6c-12.8 0-25.6 12.8-29.866666 27.733333l4.266666 32c-6.4 2.133333-12.8 4.266667-17.066666 8.533333l-29.866667-21.333333c-10.666667-8.533333-27.733333-8.533333-38.4 0l-17.066667 17.066667c-10.666667 10.666667-10.666667 29.866667 0 40.533333l21.333334 27.733333c-4.266667 4.266667-4.266667 12.8-8.533334 17.066667l-32 4.266667c-12.8 0-25.6 12.8-25.6 32v27.733333c0 12.8 12.8 27.733333 25.6 32l29.866667-4.266667c0 4.266667 4.266667 12.8 8.533333 17.066667l-21.333333 27.733333c-8.533333 12.8-8.533333 27.733333 0 40.533334l17.066667 17.066666c10.666667 10.666667 27.733333 10.666667 38.4 2.133334l2.133333-2.133334 25.6-21.333333c4.266667 4.266667 12.8 4.266667 17.066667 8.533333l4.266666 32c0 12.8 12.8 27.733333 29.866667 27.733334h21.333333c12.8 0 25.6-12.8 29.866667-27.733334l4.266667-32c6.4-2.133333 12.8-4.266667 17.066666-8.533333l25.6 23.466667c12.8 8.533333 25.6 8.533333 38.4 0l17.066667-17.066667c10.666667-10.666667 10.666667-29.866667 0-40.533333l-21.333333-27.733334c4.266667-4.266667 4.266667-12.8 8.533333-17.066666H1002.666667c12.8 0 25.6-12.8 25.6-32V202.666667c8.533333-19.2-4.266667-32-17.066667-32z m-172.8 108.8c-34.133333 0-61.866667-27.733333-61.866667-61.866667s25.6-61.866667 61.866667-61.866667 61.866667 27.733333 61.866667 61.866667-25.6 61.866667-61.866667 61.866667z m215.466667 435.2l-38.4-4.266667c-4.266667-8.533333-4.266667-12.8-8.533334-23.466667l21.333334-32c12.8-12.8 8.533333-36.266667-4.266667-44.8l-21.333333-23.466666c-10.666667-12.8-29.866667-14.933333-44.8-4.266667l-29.866667 21.333333c-8.533333-4.266667-12.8-8.533333-21.333333-8.533333l-4.266667-40.533333c0-17.066667-17.066667-32-34.133333-32h-29.866667c-17.066667 0-29.866667 12.8-34.133333 32l-8.533334 42.666666c-8.533333 4.266667-12.8 4.266667-21.333333 8.533334l-29.866667-23.466667c-12.8-12.8-34.133333-8.533333-44.8 4.266667l-21.333333 23.466666c-12.8 12.8-14.933333 29.866667-4.266667 44.8l21.333334 32c-4.266667 8.533333-8.533333 12.8-8.533334 23.466667l-40.533333 4.266667c-17.066667 0-29.866667 17.066667-29.866667 36.266666v32c0 17.066667 12.8 32 29.866667 36.266667l40.533333 4.266667c4.266667 8.533333 4.266667 12.8 8.533334 21.333333l-21.333334 32c-12.8 12.8-8.533333 36.266667 4.266667 44.8l21.333333 21.333333c12.8 12.8 29.866667 12.8 44.8 4.266667l29.866667-23.466667c8.533333 4.266667 12.8 8.533333 21.333333 8.533334l4.266667 40.533333c0 17.066667 17.066667 32 34.133333 32h29.866667c17.066667 0 29.866667-12.8 34.133333-32l4.266667-40.533333c8.533333-4.266667 12.8-4.266667 21.333333-8.533334l29.866667 23.466667c12.8 12.8 34.133333 8.533333 44.8-4.266667l21.333333-21.333333c12.8-12.8 14.933333-29.866667 4.266667-44.8l-17.066667-36.266667c4.266667-8.533333 8.533333-12.8 8.533334-23.466666l38.4-4.266667c17.066667 0 29.866667-17.066667 29.866666-36.266667v-32c0-17.066667-12.8-29.866667-29.866666-29.866666z m-196.266667 125.866666c-40.533333 0-74.666667-36.266667-74.666667-76.8 0-40.533333 34.133333-76.8 74.666667-76.8s74.666667 36.266667 74.666667 76.8c0 40.533333-36.266667 76.8-74.666667 76.8z" fill="#2A7EFB" p-id="6119"></path></svg>