<?xml version="1.0" standalone="no"?><!DOCTYPE svg PUBLIC "-//W3C//DTD SVG 1.1//EN" "http://www.w3.org/Graphics/SVG/1.1/DTD/svg11.dtd"><svg t="1568606221028" class="icon" viewBox="0 0 1024 1024" version="1.1" xmlns="http://www.w3.org/2000/svg" p-id="9845" xmlns:xlink="http://www.w3.org/1999/xlink" width="200" height="200"><defs><style type="text/css"></style></defs><path d="M58.761846 347.687385S144.226462 85.700923 438.114462 35.682462a955.943385 955.943385 0 0 0-88.221539 166.754461S259.938462 192.748308 238.749538 284.435692c0 0.708923-96.571077 18.038154-179.908923 63.015385z m181.169231-9.688616S116.420923 363.598769 35.84 423.384615c0 0-41.668923 173.686154 57.659077 337.683693A735.783385 735.783385 0 0 0 299.323077 771.938462s0-63.881846 41.668923-96.571077c0 0-51.436308-132.017231-38.203077-271.675077 2.048 0-49.309538-13.233231-62.542769-66.008616z m-102.636308 482.067693s132.017231 202.200615 435.593846 175.104c0 0-107.677538-102.793846-129.890461-136.900924 0 0-85.464615 20.873846-113.979077-38.203076-0.708923 0-109.804308 15.753846-191.724308 0z m348.790154 7.876923s20.873846-9.688615 29.144615-59.785847c0 0 168.802462-59.785846 273.014154-218.190769 0 0 34.028308 1.417846 56.241231-15.753846 0 0 78.769231 73.649231 115.318154 170.220308a479.389538 479.389538 0 0 1-311.926154 277.897846c0-1.417846-107.677538-72.231385-161.870769-154.230154z m432.128-578.244923s123.667692 140.996923 67.426462 380.455384c0 0-68.765538-111.143385-102.793847-134.774154 0 0 30.562462-59.785846-4.883692-102.793846 1.417846 0 34.028308-64.590769 40.329846-143.123692z m-519.010461-30.562462s35.446154 29.144615 36.864 56.241231c0 0 152.891077 9.688615 284.199384 93.105231 0 0 59.785846-47.970462 115.318154-12.524308 0 0 31.980308-57.659077 38.203077-163.997539 0 0-117.444923-155.648-364.780308-160.452923 2.993231-2.048-93.814154 128.551385-109.804307 187.628308z m-41.668924 188.258462s70.892308 4.883692 83.337847-80.580924c0 0 139.657846 12.524308 252.061538 80.580924 0 0-27.096615 85.464615 41.668923 127.133538 0 0-70.892308 106.338462-230.006154 181.169231 0 0-31.980308-72.231385-113.979077-59.785846 2.048-1.417846-31.980308-66.008615-33.319384-248.753231z m0 0" fill="#43BC81" p-id="9846"></path></svg>